<svg width="32" height="32" viewBox="0 0 32 32" fill="none" xmlns="http://www.w3.org/2000/svg">
<rect width="32" height="32" rx="16" fill="#090E09"/>
<path d="M16 24.25C14.231 24.25 12.958 24.2491 11.9655 24.1529C10.9844 24.0578 10.3568 23.875 9.85588 23.5602C9.28341 23.2006 8.79934 22.7166 8.43962 22.1441C8.125 21.6432 7.94213 21.0156 7.84713 20.0345C7.75088 19.042 7.75 17.769 7.75 16C7.75 14.231 7.75088 12.958 7.84713 11.9655C7.94213 10.9844 8.125 10.3568 8.43962 9.85588C8.79932 9.28339 9.28339 8.79932 9.85588 8.43962C10.3568 8.125 10.9844 7.94213 11.9655 7.84713C12.9579 7.75088 14.2309 7.75 16 7.75C17.769 7.75 19.042 7.75088 20.0345 7.84713C21.0156 7.94213 21.6432 8.125 22.1441 8.43962C22.7166 8.79934 23.2006 9.28341 23.5602 9.85588C23.875 10.3568 24.0578 10.9844 24.1529 11.9655C24.2491 12.958 24.25 14.231 24.25 16C24.25 17.769 24.2491 19.042 24.1529 20.0345C24.0578 21.0156 23.875 21.6432 23.5602 22.1441C23.2006 22.7165 22.7165 23.2006 22.1441 23.5602C21.6432 23.875 21.0156 24.0578 20.0345 24.1529C19.042 24.2491 17.769 24.25 16 24.25Z" stroke="#E6EDE1" stroke-width="1.5"/>
<path d="M16 19.75C18.0711 19.75 19.75 18.0711 19.75 16C19.75 13.9289 18.0711 12.25 16 12.25C13.9289 12.25 12.25 13.9289 12.25 16C12.25 18.0711 13.9289 19.75 16 19.75Z" stroke="#E6EDE1" stroke-width="1.5"/>
<path d="M20.875 12.25C21.4963 12.25 22 11.7463 22 11.125C22 10.5037 21.4963 10 20.875 10C20.2537 10 19.75 10.5037 19.75 11.125C19.75 11.7463 20.2537 12.25 20.875 12.25Z" fill="#E6EDE1"/>
</svg>
