<svg width="32" height="32" viewBox="0 0 32 32" fill="none" xmlns="http://www.w3.org/2000/svg">
<rect width="32" height="32" rx="16" fill="#090E09"/>
<g clip-path="url(#clip0_22_31)">
<path fill-rule="evenodd" clip-rule="evenodd" d="M14.3007 19.88C13.7665 22.6342 13.0759 24.62 11.1465 26C10.5501 21.8389 12.0218 18.7142 12.7042 15.3942C11.5395 13.4659 12.8442 9.58357 15.2983 10.5389C18.3183 11.7165 12.9007 17.4283 16.6842 18.1777C20.6348 18.9589 22.0489 12.2177 19.6007 9.76828C16.0618 6.2318 9.01124 9.23062 10.1089 14.2447C10.5512 16.2659 9.04653 16.8412 9.04653 16.8412C7.82771 16.3471 7.71125 14.6365 7.7736 12.9671C7.9136 9.12827 11.2759 6.44004 14.6489 6.0671C18.9148 5.59651 22.9183 7.60946 23.4701 11.5624C24.0936 16.0224 21.6265 21.1459 17.0642 20.7977C15.8289 20.7036 14.3007 19.88 14.3007 19.88Z" fill="#E6EDE1"/>
</g>
<defs>
<clipPath id="clip0_22_31">
<rect width="20" height="20" fill="white" transform="translate(6 6)"/>
</clipPath>
</defs>
</svg>
