<svg width="32" height="32" viewBox="0 0 32 32" fill="none" xmlns="http://www.w3.org/2000/svg">
<rect width="32" height="32" rx="16" fill="#090E09"/>
<path d="M16.41 6.64307C17.4331 6.62744 18.4488 6.63557 19.4638 6.62744C19.4975 7.89682 20.0125 9.03932 20.8319 9.88557L20.8306 9.88432C21.7125 10.6787 22.86 11.1937 24.125 11.2812L24.1425 11.2824V14.4299C22.9475 14.3999 21.8238 14.1243 20.8106 13.6506L20.8619 13.6718C20.3719 13.4362 19.9575 13.1943 19.5638 12.9243L19.5963 12.9456C19.5888 15.2262 19.6038 17.5068 19.5806 19.7793C19.5163 20.9374 19.1313 21.9937 18.5138 22.8756L18.5263 22.8562C17.4938 24.3349 15.8213 25.3056 13.9194 25.3631H13.9106C13.8338 25.3668 13.7431 25.3687 13.6519 25.3687C12.5706 25.3687 11.56 25.0674 10.6988 24.5443L10.7238 24.5587C9.15625 23.6156 8.075 22.0018 7.875 20.1249L7.8725 20.0993C7.85688 19.7087 7.84938 19.3181 7.865 18.9356C8.17125 15.9487 10.6738 13.6381 13.7156 13.6381C14.0575 13.6381 14.3925 13.6674 14.7181 13.7231L14.6831 13.7181C14.6988 14.8737 14.6519 16.0299 14.6519 17.1856C14.3875 17.0899 14.0825 17.0343 13.7644 17.0343C12.5969 17.0343 11.6038 17.7806 11.2363 18.8224L11.2306 18.8412C11.1475 19.1081 11.0994 19.4149 11.0994 19.7324C11.0994 19.8612 11.1075 19.9887 11.1225 20.1137L11.1213 20.0987C11.3288 21.3774 12.425 22.3424 13.7469 22.3424C13.785 22.3424 13.8225 22.3418 13.86 22.3399H13.8544C14.7688 22.3124 15.5625 21.8206 16.0113 21.0937L16.0175 21.0824C16.1844 20.8499 16.2988 20.5687 16.3369 20.2631L16.3375 20.2543C16.4156 18.8562 16.3844 17.4662 16.3919 16.0681C16.3994 12.9206 16.3844 9.78057 16.4075 6.64119L16.41 6.64307Z" fill="#E6EDE1"/>
</svg>
