<svg width="32" height="32" viewBox="0 0 32 32" fill="none" xmlns="http://www.w3.org/2000/svg">
<rect width="32" height="32" rx="16" fill="#090E09"/>
<g clip-path="url(#clip0_22_32)">
<path fill-rule="evenodd" clip-rule="evenodd" d="M26 9.24852C25.2635 9.60028 24.4729 9.83675 23.6435 9.94498C24.4906 9.39792 25.1412 8.53322 25.4482 7.50028C24.6541 8.00734 23.7741 8.37557 22.84 8.57322C22.0929 7.71322 21.0247 7.17676 19.8459 7.17676C17.5777 7.17676 15.74 9.15557 15.74 11.5956C15.74 11.9426 15.7776 12.2791 15.8459 12.6026C12.4365 12.4179 9.40942 10.6603 7.38589 7.98616C7.03411 8.63793 6.83058 9.39793 6.83058 10.2073C6.83058 11.7403 7.77882 13.0909 8.88 13.885C8.20706 13.8614 7.24353 13.6614 7.24353 13.3297V13.3885C7.24353 15.5273 8.4353 17.312 10.3118 17.7203C9.96824 17.8191 9.4953 17.8744 9.12 17.8744C8.85529 17.8744 8.54235 17.8462 8.29058 17.7932C8.81413 19.5485 10.3024 20.8262 12.0976 20.8638C10.6929 22.0462 8.90942 22.7532 6.98706 22.7532C6.65529 22.7532 6.32 22.732 6 22.692C7.81765 23.9438 9.97058 24.6767 12.2882 24.6767C19.84 24.6767 23.9659 17.9462 23.9659 12.1085C23.9659 11.9167 23.9612 11.7238 23.9518 11.5344C24.7541 10.912 25.4506 10.1344 26 9.24852Z" fill="#E6EDE1"/>
</g>
<defs>
<clipPath id="clip0_22_32">
<rect width="20" height="20" fill="white" transform="translate(6 6)"/>
</clipPath>
</defs>
</svg>
