<svg width="32" height="32" viewBox="0 0 32 32" fill="none" xmlns="http://www.w3.org/2000/svg">
<rect width="32" height="32" rx="16" fill="#090E09"/>
<path fill-rule="evenodd" clip-rule="evenodd" d="M16.0455 9C16.6137 9.00099 22.332 9.02081 23.813 9.41727C24.674 9.6458 25.351 10.3215 25.582 11.1859C25.9833 12.6835 25.9993 15.7378 26 15.9797V16.0103C25.9993 16.253 25.9833 19.3164 25.582 20.814C25.351 21.6784 24.674 22.3541 23.813 22.5826C22.2852 22.9916 16.2483 22.9998 16.0074 22.9999H15.9926C15.7517 22.9998 9.7138 22.9916 8.185 22.5826C7.325 22.3541 6.647 21.6784 6.417 20.814C6.01668 19.3164 6.00067 16.253 6.00003 16.0103V15.9797C6.00067 15.7378 6.01668 12.6835 6.417 11.1859C6.647 10.3215 7.325 9.6458 8.185 9.41727C9.667 9.02081 15.3862 9.00099 15.9545 9H16.0455ZM13.954 13.044V18.9559L19.182 15.995L13.954 13.044Z" fill="#E6EDE1"/>
</svg>
